<svg width="26" height="26" viewBox="0 0 26 26" fill="none" xmlns="http://www.w3.org/2000/svg">
<path d="M11.375 6.5L21.9375 6.5M11.375 6.5C11.375 7.39746 10.6475 8.125 9.75 8.125C8.85254 8.125 8.125 7.39746 8.125 6.5M11.375 6.5C11.375 5.60254 10.6475 4.875 9.75 4.875C8.85254 4.875 8.125 5.60254 8.125 6.5M4.0625 6.5H8.125M11.375 19.5H21.9375M11.375 19.5C11.375 20.3975 10.6475 21.125 9.75 21.125C8.85254 21.125 8.125 20.3975 8.125 19.5M11.375 19.5C11.375 18.6025 10.6475 17.875 9.75 17.875C8.85254 17.875 8.125 18.6025 8.125 19.5M4.0625 19.5L8.125 19.5M17.875 13L21.9375 13M17.875 13C17.875 13.8975 17.1475 14.625 16.25 14.625C15.3525 14.625 14.625 13.8975 14.625 13M17.875 13C17.875 12.1025 17.1475 11.375 16.25 11.375C15.3525 11.375 14.625 12.1025 14.625 13M4.0625 13H14.625" stroke="#606060" stroke-width="1.5" stroke-linecap="round" stroke-linejoin="round"/>
</svg>
