<svg width="22" height="22" viewBox="0 0 22 22" fill="none" xmlns="http://www.w3.org/2000/svg">
<path fill-rule="evenodd" clip-rule="evenodd" d="M6.3714 21.9714C2.67757 21.9714 0.115778 19.4087 0.00195312 15.5931V15.3305V6.65304C0.00195312 2.79639 2.45784 0.122843 6.1128 0H6.36835H14.1765C14.7734 0.00243737 15.2671 0.465781 15.3073 1.06147C15.3474 1.65717 14.9203 2.18266 14.329 2.26529L14.1994 2.27528H6.3753C3.94135 2.27528 2.37193 3.86274 2.28211 6.41929V6.664V15.3296C2.28211 17.9673 3.72966 19.5984 6.15569 19.6964H6.38737H15.6171C16.7252 19.7505 17.8044 19.331 18.5852 18.5425C19.3659 17.754 19.775 16.6711 19.7101 15.5633L19.7103 15.3198V7.77227C19.7084 7.17341 20.1719 6.67595 20.7694 6.63524C21.3669 6.59478 21.8933 7.02498 21.9726 7.61848L21.9825 7.74814V15.3247C21.9825 19.1752 19.5266 21.8449 15.8707 21.9677H15.6141L6.3714 21.9714ZM5.37423 14.6398L5.25249 14.5598C4.79597 14.2176 4.66021 13.592 4.93405 13.0913L5.01095 12.9704L8.23863 8.77743C8.58425 8.32847 9.20699 8.20075 9.70117 8.47788L9.82097 8.55685L12.6064 10.7432L15.0494 7.59043C15.4148 7.11953 16.0816 7.01034 16.5781 7.34011C17.0746 7.66989 17.2325 8.32676 16.9403 8.84641L16.8614 8.96633L13.7037 13.0426C13.355 13.4869 12.7346 13.6107 12.2421 13.3341L12.1223 13.2563L9.33995 11.071L6.82812 14.3356C6.61144 14.6154 6.2774 14.7787 5.92362 14.7782C5.73265 14.7792 5.54473 14.7317 5.37728 14.6398H5.37423Z" fill="#606060"/>
</svg>
