<svg width="21" height="22" viewBox="0 0 21 22" fill="none" xmlns="http://www.w3.org/2000/svg">
<path fill-rule="evenodd" clip-rule="evenodd" d="M7.40219 20.87C7.12753 20.6967 6.96102 20.3947 6.96102 20.0699L6.96115 12.657L0.625087 5.65698C0.267665 5.26086 0.0508684 4.75793 0.00814378 4.22607L8.71383e-05 4.03601V2.40002C-0.0110213 1.08826 1.04135 0.0148926 2.35311 0H18.6381C19.9499 0.0148926 21.0023 1.08826 20.9912 2.40002V3.98901C20.9915 4.62659 20.7425 5.23889 20.2972 5.69507L13.4203 12.676V17.9191C13.421 18.238 13.2613 18.536 12.9952 18.712L12.8892 18.7721L8.31625 20.9281C8.02267 21.0681 7.67733 21.0466 7.40341 20.871L7.40219 20.87ZM1.89791 2.39929V4.02527C1.89682 4.1554 1.94418 4.28125 2.03097 4.3783L8.61398 11.6473C8.77255 11.8225 8.86019 12.0503 8.86007 12.2865L8.85995 18.5684L11.52 17.3143V12.2864C11.5193 12.088 11.5813 11.8944 11.697 11.7334L11.78 11.6334L18.9439 4.35742C19.0388 4.25854 19.0912 4.12646 19.0899 3.98938V2.40039C19.1013 2.13708 18.8983 1.91394 18.6351 1.90039H2.34994C2.08761 1.91492 1.88571 2.1377 1.89694 2.40027L1.89791 2.39929Z" fill="white"/>
</svg>
