<svg width="12" height="12" viewBox="0 0 12 12" fill="none" xmlns="http://www.w3.org/2000/svg">
<path fill-rule="evenodd" clip-rule="evenodd" d="M10.205 11.6069L5.96301 7.3649L1.71997 11.6069C1.46912 11.8673 1.09705 11.972 0.74707 11.8805C0.397217 11.789 0.123901 11.5158 0.0324707 11.1658C-0.05896 10.8159 0.0456543 10.4439 0.306152 10.1929L4.54797 5.94991L0.30603 1.7079C0.0533447 1.45532 -0.0455322 1.08708 0.046875 0.741898C0.139282 0.396698 0.408691 0.127014 0.753784 0.0343933C1.099 -0.0582123 1.46729 0.040329 1.71997 0.292892L5.96301 4.5359L10.205 0.292908C10.5958 -0.0976868 11.2291 -0.0976257 11.6199 0.293045C12.0105 0.683716 12.0106 1.31711 11.62 1.70789L7.37695 5.9509L11.62 10.1939C12.0104 10.5847 12.01 11.2178 11.6194 11.6082C11.2286 11.9986 10.5955 11.9985 10.205 11.6079V11.6069Z" fill="#6989DD"/>
</svg>
