<svg width="21" height="20" viewBox="0 0 21 20" fill="none" xmlns="http://www.w3.org/2000/svg">
<path d="M2.28307 17.7778H19.1132C19.7328 17.7778 20.2352 18.2752 20.2352 18.8889C20.2352 19.5025 19.7328 20 19.1132 20H1.16107C0.541402 20 0.0390625 19.5025 0.0390625 18.8889V1.11111C0.0390625 0.497461 0.541402 0 1.16107 0C1.78073 0 2.28307 0.497461 2.28307 1.11111V17.7778Z" fill="#606060"/>
<path opacity="0.5" d="M6.4679 12.982C6.04408 13.4297 5.33404 13.4523 4.88197 13.0326C4.4299 12.6129 4.40699 11.9098 4.83081 11.4621L9.03833 7.01767C9.44821 6.58471 10.1293 6.54717 10.5852 6.9324L13.906 9.73867L18.2328 4.31133C18.6167 3.82969 19.3223 3.74749 19.8087 4.12774C20.295 4.50798 20.378 5.20668 19.9941 5.68832L14.945 12.0217C14.5507 12.5163 13.8202 12.5875 13.3361 12.1784L9.94308 9.31112L6.4679 12.982Z" fill="#606060"/>
</svg>
