<svg width="28" height="28" viewBox="0 0 28 28" fill="none" xmlns="http://www.w3.org/2000/svg">
<path d="M10.5 7.87438V17.4994M17.5 10.4994V20.1244M18.087 24.2059L23.7745 21.3621C24.2191 21.1398 24.5 20.6853 24.5 20.1882V5.62305C24.5 4.64736 23.4732 4.01277 22.6005 4.44911L18.087 6.70589C17.7175 6.89065 17.2825 6.89065 16.913 6.70589L11.087 3.79286C10.7175 3.60811 10.2825 3.60811 9.91303 3.79286L4.22553 6.63661C3.78088 6.85894 3.5 7.31341 3.5 7.81055V22.3757C3.5 23.3514 4.52678 23.986 5.39947 23.5496L9.91303 21.2929C10.2825 21.1081 10.7175 21.1081 11.087 21.2929L16.913 24.2059C17.2825 24.3906 17.7175 24.3906 18.087 24.2059Z" stroke="#606060" stroke-width="2" stroke-linecap="round" stroke-linejoin="round"/>
</svg>
