<svg width="25" height="19" viewBox="0 0 25 19" fill="none" xmlns="http://www.w3.org/2000/svg">
<path fill-rule="evenodd" clip-rule="evenodd" d="M7.1629 0.00936881C6.03068 -0.0177418 4.89783 0.0140031 3.76891 0.104372C2.9253 0.0809686 2.1092 0.405833 1.51253 1.00273C0.915839 1.59963 0.591236 2.41573 0.615045 3.2594C0.511323 3.75063 0.479028 4.25438 0.519173 4.75489V14.2459C0.478304 14.7469 0.510281 15.2509 0.61406 15.7426C0.591033 16.5858 0.9161 17.4016 1.51285 17.9978C2.10963 18.5943 2.92553 18.9189 3.76891 18.8953C4.89655 18.9852 6.0281 19.0169 7.15902 18.9903L17.5992 18.9905C18.7315 19.0179 19.8644 18.9861 20.9933 18.8955C21.8368 18.9187 22.6526 18.5936 23.249 17.9969C23.8455 17.4 24.1699 16.5839 24.1462 15.7405C24.2516 15.2497 24.2855 14.7462 24.2468 14.2459L24.2468 4.75489C24.2875 4.25461 24.2555 3.7511 24.1518 3.26009C24.1751 2.41665 23.8502 1.60079 23.2534 1.00412C22.6566 0.407455 21.8405 0.0828224 20.997 0.106457C19.8681 0.0158568 18.7353 -0.0165832 17.603 0.00960052L7.1629 0.00936881ZM7.16266 1.9072H17.6028C19.0265 1.9072 20.0705 1.91299 20.7823 1.9927C21.193 1.91832 21.6142 2.04994 21.9096 2.34491C22.205 2.63965 22.3374 3.06068 22.2638 3.47151C22.3678 3.89091 22.3965 4.32537 22.3483 4.75451L22.3483 5.70361H18.5519C18.4821 5.70269 18.4124 5.70941 18.3441 5.72354C16.3356 5.82897 14.7612 7.48828 14.7612 9.49956C14.7612 11.5108 16.3356 13.1702 18.3441 13.2756C18.4124 13.2904 18.482 13.2974 18.5519 13.2964H22.3483V14.2455C22.3958 14.6744 22.3669 15.1082 22.2629 15.5269C22.3369 15.9378 22.2051 16.3588 21.9101 16.654C21.615 16.9494 21.1941 17.0815 20.7833 17.0076C20.0752 17.0873 19.0227 17.0931 17.6019 17.0931H7.16266C6.80011 17.0931 6.52866 17.0873 6.21356 17.0854V1.91392C6.52866 1.91392 6.79916 1.9072 7.16266 1.9072ZM4.3152 1.97474V17.0265C4.21553 17.0179 4.07222 17.0179 3.98301 17.0075C3.57212 17.0818 3.1508 16.9502 2.85543 16.655C2.56008 16.3598 2.42817 15.9386 2.50241 15.5277C2.39793 15.1088 2.36903 14.6746 2.41699 14.2457V4.75462C2.36923 4.32618 2.39817 3.89241 2.50238 3.47417C2.42797 3.06357 2.5595 2.64231 2.85444 2.34711C3.14939 2.05167 3.57032 1.91959 3.98113 1.99351C4.07034 1.98308 4.21461 1.98308 4.3152 1.97451V1.97474ZM18.5524 7.60268H22.3488V11.3991H18.5524C17.8742 11.3991 17.2476 11.0374 16.9085 10.45C16.5694 9.8626 16.5694 9.13918 16.9085 8.55179C17.2476 7.96439 17.8742 7.60268 18.5524 7.60268ZM18.5504 8.55139C18.0262 8.55139 17.6013 8.97636 17.6013 9.50049C17.6013 10.0246 18.0262 10.4496 18.5504 10.4496C19.0746 10.4496 19.4995 10.0246 19.4995 9.50049C19.4995 8.97636 19.0746 8.55139 18.5504 8.55139Z" fill="#606060"/>
</svg>
