<svg width="19" height="19" viewBox="0 0 19 19" fill="none" xmlns="http://www.w3.org/2000/svg">
<path fill-rule="evenodd" clip-rule="evenodd" d="M16.4221 17.6917L12.3542 13.6239C9.18143 16.1244 4.60965 15.719 1.92649 12.6991C-0.756787 9.67933 -0.6215 5.09159 2.23504 2.23505C5.09146 -0.621485 9.67932 -0.756771 12.6991 1.92639C15.719 4.60956 16.1244 9.18145 13.6239 12.3541L17.6917 16.4221C17.9556 16.6404 18.0729 16.9893 17.9946 17.3227C17.9165 17.6562 17.6562 17.9165 17.3227 17.9947C16.9893 18.0729 16.6404 17.9556 16.4221 17.6917ZM1.79296 7.63055C1.79296 9.97544 3.19745 12.0932 5.35829 13.0059C7.51925 13.9187 10.0166 13.449 11.6983 11.8135C11.7154 11.7926 11.7334 11.7729 11.752 11.7543C11.7709 11.7354 11.7907 11.7173 11.8115 11.7002C13.6472 9.81418 13.9934 6.93298 12.6568 4.66581C11.3203 2.39863 8.63159 1.30643 6.09263 1.99937C3.55367 2.69221 1.79263 4.99879 1.79296 7.63055Z" fill="#345199"/>
</svg>
